<svg id="Layer_1" data-name="Layer 1" xmlns="http://www.w3.org/2000/svg" viewBox="0 0 1000 1000"><defs><style>.cls-1{fill:#ffd34e;}.cls-2{fill:#38a7c1;}.cls-3{fill:#7dc588;}.cls-4{fill:#bd4932;}</style></defs><title>Artboard 1</title><path class="cls-1" d="M340.54,405.58c-5.68,4.48-11.93,8.14-17.78,12.38-3.51,2.55-7.39,4.59-10.54,7.63l0,0a.86.86,0,0,0-.94.47c-6.54,2.69-13.12,5.29-19.61,8.09a262.47,262.47,0,0,0-29.91,15.76,162.3,162.3,0,0,1-31.38-70c-6-32.34-3-63.91,10.18-94,22.5-51.21,61.22-84.18,115.83-96.25,52.72-11.65,100.48.84,142,35.58,19.95,16.7,34.65,37.46,44.7,61.47.29.68.48,1.4.72,2.1-5.91,2.48-11.81,5-17.73,7.42-1.67.68-3.17,1.76-5,2a101.92,101.92,0,0,0-25.75-34.45c-25.29-21.85-54.61-30.36-87.59-25-26.41,4.31-48.08,17.31-64.78,38.19-16.12,20.15-23.68,43.29-23,69.14a104.07,104.07,0,0,0,7,34.48A118.5,118.5,0,0,0,340.54,405.58Z"/><path class="cls-2" d="M156.84,602.65a99.5,99.5,0,0,1,12-10.33c21.42-16.22,45.09-27.57,71.59-32.65a150.87,150.87,0,0,1,48.71-1.42c28.28,3.77,53.89,14.45,77.45,30.12,22.6,15,44.39,31.25,67.1,46.14,25.68,16.83,51.74,33,79.38,46.5,21.17,10.34,43,18.95,66.14,23.76a174.21,174.21,0,0,0,43.75,3.65,161,161,0,0,0,31-4.53,3,3,0,0,1,2.18-.1,119.41,119.41,0,0,1-12.8,5.54q-16.8,6.61-34.13,11.7a384.21,384.21,0,0,1-60.23,12.81,332.82,332.82,0,0,1-33.52,2.52c-27.85.71-55.08-2.74-81.52-11.68A194.49,194.49,0,0,1,384.18,699q-9.81-6.91-19.82-13.55c-4.22-2.81-8.26-5.85-12.47-8.67s-8.57-5.89-12.86-8.82-8.72-6-13.09-8.92-8.76-5.9-13.17-8.81-8.68-5.72-13.05-8.53-8.9-5.69-13.4-8.44c-17.4-10.64-35.15-20.6-54.42-27.55-15.28-5.52-31-8.51-47.28-7.67a108.78,108.78,0,0,0-25,4.39C158.86,602.64,158.13,603.21,156.84,602.65Z"/><path class="cls-3" d="M656.82,703.25c.07,0,.16-.07.22-.06.25.06.27.16.06.24a.31.31,0,0,1-.23,0S656.84,703.3,656.82,703.25Z"/><path class="cls-3" d="M312.06,425.6h0v0Z"/><path class="cls-2" d="M840.56,497.85c-20.22,15.66-41.66,29.05-66.45,36.39a121.47,121.47,0,0,1-33.1,5.19,132,132,0,0,1-40.38-6,222.48,222.48,0,0,1-37.1-15.51c-.67-.35-1.69-.4-1.71-1.52-2.34-.26-4.15-1.59-5.93-3-4.4-1.53-8.16-4.24-12.12-6.57-20.4-12-40.06-25.23-60.28-37.53-24.55-14.94-49.77-28.57-76.8-38.57-5.41-2-10.91-3.72-16.37-5.58a5.84,5.84,0,0,1-2.47-1c-6-1.51-11.9-3.08-17.87-4.52a256.18,256.18,0,0,0-31.46-5.42c-8.41-1-16.82-1.56-25.27-2-7.26-.41-14.5-.54-21.74-.27-26,1-51.55,4.89-76.33,13.13a6.24,6.24,0,0,1-3.1.63c-.14.49-.56.42-.93.45-6.54,2.69-13.12,5.29-19.61,8.09a262.48,262.48,0,0,0-29.91,15.76c-5,3.82-10.53,6.85-15.54,10.68-7.73,5.91-15.32,12-22.45,18.6A271.79,271.79,0,0,0,176.77,536c-4.09,6.66-8.2,13.33-11.09,20.64h0l-.13.54L166,557a3.26,3.26,0,0,0,1.57-1.15A168.34,168.34,0,0,1,186,540.1c19.32-14.3,40.64-23.59,64.76-25.86A142.46,142.46,0,0,1,294,517c19.78,4.21,38.42,11.6,56.59,20.29,24,11.48,46.76,25.17,69.37,39.1,31.11,19.17,61.91,38.82,94,56.33,22.9,12.48,52.81,25.7,77.29,33.26a234.31,234.31,0,0,0,36.8,8.44,158.93,158.93,0,0,0,47.53-.3c25.14-4.05,47.78-14.1,68.29-29.07,20.89-15.25,38-34.12,52.79-55.2,17.06-24.3,30.44-50.55,41-78.25,1.87-4.89,3.49-9.88,5.28-15A3.21,3.21,0,0,0,840.56,497.85Z"/><path class="cls-4" d="M842,494.42l-.25-.47c-1.39-2-2.71-4.12-4.17-6.11-14.38-19.48-29.41-38.4-47.53-54.63-6.72-6-13.79-11.57-22.23-15-7-2.87-13.69-3.4-20,1.78-2.34,1.92-5.31,2.12-8.26,1.8-6.87-.76-12.63-4.15-18.21-7.85-12.51-8.3-23.4-18.53-34.06-29-24.16-23.71-46.4-49.25-70.06-73.42-9.07-9.26-18.28-18.36-28.8-26a19,19,0,0,0-10.84-3.62,63.72,63.72,0,0,0-16.18,1.79c-6,1.34-11.8,3.64-17.76,5.23-5.91,2.48-11.81,5-17.74,7.42-1.67.68-3.17,1.76-5,2-5.39,2.65-10.79,5.27-16.15,8C469.36,324,435.47,344.47,402,365.58q-30,18.94-59.46,38.82c-.68.45-1.43.79-2.15,1.18-5.68,4.48-11.93,8.14-17.78,12.38-3.5,2.54-7.37,4.58-10.52,7.61a.86.86,0,0,0-.94.47c.37,0,.79,0,.93-.45a6.24,6.24,0,0,0,3.11-.63c24.78-8.24,50.32-12.14,76.33-13.13,7.23-.27,14.48-.15,21.74.27,8.45.48,16.86,1.09,25.27,2A256.18,256.18,0,0,1,470,419.57c6,1.44,11.92,3,17.87,4.52q18-6.92,36-13.84,23.18-8.88,46.39-17.7c.6-.23,1.19-.49,2.3-.94a7.35,7.35,0,0,0-4,.53c-13.62,3.53-27.43,5.74-41.54,5.6a64.42,64.42,0,0,1-14-1.36c-5-1.16-6.56-4.21-4.25-8.79,2.79-5.53,7.19-9.77,11.75-13.81,16.93-15,35.82-27.24,54.91-39.2,4.82-3,9.82-5.75,14.62-8.8,2.9-1.84,5.57-1.6,8.34,0,4.69,2.79,8.32,6.76,11.78,10.85,11,13,19.92,27.29,28.74,41.72,7.82,12.8,15.22,25.85,22.41,39,8.09,14.8,16.05,29.67,23.53,44.8a7,7,0,0,0,5.47,4c4.4.83,8.49-.26,12.53-1.88,5.5-2.2,10.14-5.77,14.91-9.15l.57-.42c.3-.28.45-1,1-.45h0l-.73.9-.35.36c-12.85,12.68-26.31,24.7-39.59,36.92Q667.31,503,655.89,513.37c1.78,1.39,3.59,2.71,5.93,3,.39-.13.79-.24,1.17-.39,36.89-14.16,73.77-28.33,110.86-42a38.27,38.27,0,0,1,15.74-2.43c9.29.56,17.86,3.61,26.22,7.43,9.11,4.16,17.46,9.59,25.66,15.28h0ZM719.39,454.29l-.06-.29.32,0Z"/><path class="cls-4" d="M133,789.16c0-17.41-14.65-34-48.19-34-35.45,0-74.51,27-74.51,55.19C10.26,825.67,18.33,831,33,831c-.21-1.91-3-3.61-3-14.44C30,784.27,52.93,765,87.32,765c16.56,0,23.35,10.2,23.35,22.09,0,16.56-12.52,37-30.14,37H78.61l10.61-49.05-31.42,4.14L28.94,914H59.51l17-79.83a27.6,27.6,0,0,1,6.79-.75c9.55,0,12.74,6,12.74,14.49,0,16.13-11,41.84-11,55.85,0,7,2.76,14.24,16.56,14.24,5.09,0,12.1-1.06,21-3.6-5.09-1.91-8.28-7.64-8.28-14,0-13.16,10.4-36.3,10.4-53.71,0-10-3.61-18-14.65-21.23C124.68,817,133,802.11,133,789.16Z"/><path class="cls-4" d="M507.85,797a16.85,16.85,0,0,0,17-16.77,17,17,0,0,0-17-17,16.85,16.85,0,0,0-16.77,17A16.67,16.67,0,0,0,507.85,797Z"/><path class="cls-4" d="M858.12,797a16.85,16.85,0,0,0,17-16.77,17,17,0,0,0-17-17,16.85,16.85,0,0,0-16.77,17A16.67,16.67,0,0,0,858.12,797Z"/><path class="cls-4" d="M966.39,887.66a30.67,30.67,0,0,1,1.06-7.35L982.73,808H952.38l-1.27,5.65a23,23,0,0,0-14.22-5.24c-40.71,0-54.49,40.24-55.55,75.74-6.44,5.56-13.28,10.92-19,10.92-8.49,0-10.61-3.39-10.61-8.06a41.34,41.34,0,0,1,.85-6.71L867.89,808H837.32L822,880.31a56.88,56.88,0,0,0-1.22,9.35c-3.47,3.11-7,5.4-10.67,5.4-8.28,0-10.61-3.17-10.61-7.84a26.44,26.44,0,0,1,1.06-6.78l3-12.1a22.64,22.64,0,0,0,.64-5.31c0-14-13.16-26.32-24.62-26.32a24.29,24.29,0,0,0-5.52.51L817.15,808H794.22s-25,19.24-41,32l15.92-74.23L737.76,770,713,886.15c-5.74,4.79-11.63,8.93-16.64,8.93-8.49,0-10.61-3.39-10.61-8.06a41.36,41.36,0,0,1,.85-6.71L701.88,808H671.31L656,880.31a50.12,50.12,0,0,0-1.27,7.07c-5.31,4.25-10.61,7.68-15.07,7.68-8.49,0-10.61-3.38-10.61-8.05a41.29,41.29,0,0,1,.85-6.7L645.2,808H614.63l-15.26,72.2C591.75,886.85,583,895,576,895c-8.49,0-10.61-3-10.61-7.91,0-1.06-.21-3.11,14.43-70.11h12.74l1.7-9H581.52c4-19,7.22-33.41,7.22-33.41l-31.42,4.18L550.95,808h-7l-1.7,9h7c-2.83,14-10.24,45-13.3,63-7.73,6.72-16.7,15.11-23.85,15.11-8.49,0-10.61-3.43-10.61-8.1a41.55,41.55,0,0,1,.85-6.73L517.62,808H487.05l-13.48,63.8.11-2c-7,15.92-19.1,25.38-32.69,32.38l20-94.14H430.37L428,818.32a18.65,18.65,0,0,0-16.77-9.91c-41.18,0-52.43,48.65-52.43,77.94,0,1,0,2.13.13,3.22-3.47,3.24-6.62,5.51-11.6,5.51-8.28,0-10.61-3.18-10.61-7.85a26.49,26.49,0,0,1,1.06-6.79l8.7-40.54a20.65,20.65,0,0,0,.42-5.09c0-14.22-12.95-26.53-24.41-26.53-9.34,0-19.11,5-27.81,11.33L297.27,808H266.7l-16.43,77.63c-5.88,5-12,9.39-17.11,9.39-8.49,0-10.61-3.36-10.61-8a41.2,41.2,0,0,1,.85-6.7L238.68,808H208.11l-1.27,5.65a23,23,0,0,0-14.22-5.24c-42.46,0-55.62,43.76-55.62,80.27,0,12.52,5.94,27,26.32,27,12.95,0,22.5-8.69,28.87-17.4,2.76,11,12.1,16.14,25.9,16.14,8.9,0,19.93-8.35,29.76-17.4l-3.65,17h30.57l18-85.56c4.46-3,8.28-4.36,13.37-4.36,5.73,0,9.76,4.93,9.76,12.57a26.13,26.13,0,0,1-.64,5.54l-8.07,38.22A51.59,51.59,0,0,0,306,891.26c0,15.92,9.77,23.14,26.32,23.14,9.95,0,19.74-8.27,28.09-17,2.85,9.71,10,18.7,24.77,18.7,9.77,0,18-4.46,24.41-10.19l-2.12,9.55c-19.1,7-34.6,14-34.6,31.42,0,13.8,10.83,20.59,23.78,20.59,14,0,31.84-5.73,38.21-36.09l3.61-17c14-5.15,26.7-11.49,32.1-21.49.69,14.77,10.72,21.49,26.49,21.49,11.38,0,26.28-13.34,37.65-24.86,0,.63-.07,1.22-.07,1.72,0,15.92,10,23.14,26.32,23.14,11.23,0,25.88-13,37.19-24.4,0,.42,0,.85,0,1.26,0,15.92,10.19,23.14,26.54,23.14,9.13,0,20.59-8.49,30.57-17.83,1.91,12.31,11.67,17.83,26.11,17.83,8.74,0,19.56-8.08,29.26-16.95L707,914h30.57l12.1-56.9c4.46-3,8.28-4.57,13.59-4.57,5.73,0,9.76,4.93,9.76,12.57a26.15,26.15,0,0,1-.64,5.54L770,880.42a44.42,44.42,0,0,0-1.49,11.26c0,15.5,10.19,22.72,26.54,22.72,8.48,0,18-7.41,26.51-16,2.72,10.92,12.07,16,25.71,16,10.27,0,23.39-10.85,34.21-21.43,1.28,11.32,8,22.7,26.08,22.7,12.95,0,22.5-8.7,28.87-17.41,2.12,9.76,8.7,16.13,21,16.13,7.22,0,16.13-1.27,22.08-19.53a17,17,0,0,1-5.52.64C968.09,895.51,966.39,892.11,966.39,887.66Zm-773.56-7.22a49.42,49.42,0,0,0-1.27,7c-4,5.94-8.7,10.61-13.59,10.61-5.31,0-12.31-2.33-12.31-15.07,0-28.87,12.74-62.62,28.66-62.62a15.84,15.84,0,0,1,10.4,3.82ZM404,932c-2.55,12.52-8.07,18.89-12.31,18.89a7.23,7.23,0,0,1-7.22-7c0-8.28,8.7-13.59,20.8-18.26Zm9.13-43.73c-4,4.25-8.49,7.43-12.74,7.43-9.34,0-15.5-3.18-15.5-13.37,0-18.26,8.07-62,28.66-62,3.61,0,8.7,2.76,12.1,9.13Zm523.92-7.85a26.5,26.5,0,0,0-1.06,6.79c-4.25,5.94-8.92,10.83-13.8,10.83-5.31,0-12.31-2.33-12.31-15.07,0-28.87,12.74-62.62,28.66-62.62a15.84,15.84,0,0,1,10.4,3.82Z"/></svg>