<svg id="Layer_1" data-name="Layer 1" xmlns="http://www.w3.org/2000/svg" viewBox="0 0 983.44 790.92"><defs><style>.cls-1{fill:#ffd34e;}.cls-2{fill:#38a7c1;}.cls-3{fill:#7dc588;}.cls-4{fill:#bd4932;}</style></defs><title>rangitukia-logo-notext</title><path class="cls-1" d="M263.67,316c-8.15,6.43-17.12,11.68-25.52,17.77-5,3.66-10.61,6.59-15.13,11h0a1.23,1.23,0,0,0-1.35.67c-9.39,3.86-18.83,7.59-28.15,11.61a376.73,376.73,0,0,0-42.93,22.62,233,233,0,0,1-45-100.47c-8.61-46.42-4.31-91.73,14.61-134.92C152.46,70.74,208,23.42,286.42,6.09,362.09-10.63,430.65,7.3,490.24,57.16c28.64,24,49.73,53.77,64.16,88.23.42,1,.69,2,1,3-8.48,3.56-17,7.18-25.45,10.65-2.4,1-4.55,2.53-7.18,2.87a146.29,146.29,0,0,0-37-49.45C449.55,81.12,407.47,68.9,360.13,76.6c-37.91,6.19-69,24.85-93,54.82-23.14,28.92-34,62.14-33,99.24a149.38,149.38,0,0,0,10,49.49A170.09,170.09,0,0,0,263.67,316Z"/><path class="cls-2" d="M0,598.87A142.81,142.81,0,0,1,17.22,584C48,560.77,81.94,544.48,120,537.18a216.55,216.55,0,0,1,69.92-2c40.59,5.41,77.35,20.74,111.17,43.23,32.44,21.53,63.72,44.85,96.31,66.23,36.86,24.16,74.26,47.37,113.94,66.74,30.39,14.84,61.72,27.2,94.93,34.1a250.05,250.05,0,0,0,62.8,5.24,231.09,231.09,0,0,0,44.5-6.5,4.31,4.31,0,0,1,3.13-.14,171.4,171.4,0,0,1-18.37,8q-24.11,9.49-49,16.79a551.47,551.47,0,0,1-86.45,18.39,477.72,477.72,0,0,1-48.11,3.62c-40,1-79.06-3.93-117-16.76a279.16,279.16,0,0,1-71.42-36.86q-14.08-9.92-28.45-19.45c-6.06-4-11.86-8.4-17.9-12.44s-12.3-8.45-18.46-12.66S249,684,242.72,679.81s-12.57-8.47-18.9-12.65-12.46-8.21-18.73-12.24-12.77-8.17-19.23-12.11c-25-15.27-50.45-29.57-78.11-39.54-21.93-7.92-44.5-12.21-67.86-11A156.14,156.14,0,0,0,4,598.56C2.9,598.86,1.85,599.68,0,598.87Z"/><path class="cls-3" d="M717.64,743.27c.1,0,.23-.1.32-.09.36.09.39.23.09.34a.45.45,0,0,1-.33,0S717.67,743.34,717.64,743.27Z"/><path class="cls-2" d="M981.37,448.45c-29,22.48-59.8,41.7-95.38,52.23a174.35,174.35,0,0,1-47.51,7.45,189.47,189.47,0,0,1-58-8.61,319.34,319.34,0,0,1-53.25-22.26c-1-.5-2.43-.57-2.45-2.18-3.36-.37-6-2.28-8.51-4.31-6.32-2.2-11.71-6.09-17.4-9.43-29.28-17.22-57.5-36.21-86.52-53.87-35.24-21.44-71.44-41-110.23-55.36-7.77-2.87-15.66-5.34-23.5-8a8.38,8.38,0,0,1-3.55-1.44c-8.61-2.17-17.08-4.42-25.65-6.49a367.7,367.7,0,0,0-45.16-7.78c-12.07-1.44-24.14-2.24-36.27-2.87-10.42-.59-20.81-.78-31.2-.39-37.32,1.44-74,7-109.56,18.85a9,9,0,0,1-4.45.9c-.2.7-.8.6-1.33.65-9.39,3.86-18.83,7.59-28.15,11.61a376.75,376.75,0,0,0-42.93,22.62c-7.18,5.48-15.11,9.83-22.31,15.33-11.1,8.48-22,17.22-32.22,26.7a390.11,390.11,0,0,0-67.27,81.41c-5.87,9.56-11.77,19.13-15.92,29.63h0l-.19.78.65-.26a4.68,4.68,0,0,0,2.25-1.65,241.63,241.63,0,0,1,26.45-22.61c27.73-20.53,58.33-33.86,93-37.12a204.48,204.48,0,0,1,62.06,4c28.39,6,55.15,16.65,81.23,29.12,34.45,16.48,67.12,36.13,99.57,56.12C422.32,588.7,466.53,616.9,512.59,642c32.87,17.91,75.8,36.89,110.94,47.74a336.32,336.32,0,0,0,52.82,12.11,228.12,228.12,0,0,0,68.22-.43c36.08-5.81,68.58-20.24,98-41.73,30-21.89,54.54-49,75.77-79.23,24.49-34.88,43.69-72.56,58.85-112.32,2.68-7,5-14.18,7.58-21.53A4.61,4.61,0,0,0,981.37,448.45Z"/><path class="cls-4" d="M983.44,443.53l-.36-.67c-2-2.87-3.89-5.91-6-8.77-20.64-28-42.21-55.12-68.22-78.41-9.65-8.61-19.79-16.61-31.91-21.53-10-4.12-19.65-4.88-28.71,2.55-3.36,2.76-7.62,3-11.86,2.58-9.86-1.09-18.13-6-26.14-11.27-18-11.91-33.59-26.6-48.89-41.63-34.68-34-66.6-70.69-100.56-105.38-13-13.29-26.24-26.35-41.34-37.32a27.27,27.27,0,0,0-15.56-5.2,91.46,91.46,0,0,0-23.22,2.57c-8.61,1.92-16.94,5.22-25.49,7.51-8.48,3.56-17,7.18-25.46,10.65-2.4,1-4.55,2.53-7.18,2.87-7.74,3.8-15.49,7.56-23.18,11.48-50.81,25.35-99.46,54.73-147.5,85q-43.06,27.19-85.35,55.72c-1,.65-2.05,1.13-3.09,1.69-8.15,6.43-17.12,11.68-25.52,17.77-5,3.65-10.58,6.57-15.1,10.92a1.23,1.23,0,0,0-1.35.67c.53,0,1.13,0,1.33-.65a9,9,0,0,0,4.46-.9C262.85,332,299.51,326.4,336.85,325c10.38-.39,20.78-.22,31.2.39,12.13.69,24.2,1.56,36.27,2.87a367.7,367.7,0,0,1,45.17,7.85c8.61,2.07,17.11,4.31,25.65,6.49l51.67-19.87Q560.09,310,593.4,297.31c.86-.33,1.71-.7,3.3-1.35a10.55,10.55,0,0,0-5.74.76c-19.55,5.07-39.37,8.24-59.62,8a92.47,92.47,0,0,1-20.09-2c-7.18-1.67-9.42-6-6.1-12.62,4-7.94,10.32-14,16.87-19.82,24.3-21.53,51.41-39.1,78.81-56.27,6.92-4.31,14.1-8.25,21-12.63,4.16-2.64,8-2.3,12,0,6.73,4,11.94,9.7,16.91,15.57,15.79,18.66,28.59,39.17,41.25,59.88,11.22,18.37,21.85,37.1,32.17,56,11.61,21.24,23,42.59,33.77,64.3a10,10,0,0,0,7.85,5.74c6.32,1.19,12.19-.37,18-2.7,7.89-3.16,14.55-8.28,21.4-13.13l.82-.6c.43-.4.65-1.44,1.44-.65h0l-1,1.29-.5.52c-18.44,18.2-37.76,35.45-56.83,53q-16.29,15.17-32.68,30.06c2.55,2,5.15,3.89,8.51,4.31.56-.19,1.13-.34,1.68-.56,52.95-20.32,105.89-40.66,159.12-60.28a54.93,54.93,0,0,1,22.59-3.49c13.33.8,25.64,5.18,37.63,10.66,13.08,6,25.06,13.76,36.83,21.93h0Zm-176-57.6-.09-.42h.46Z"/></svg>