<svg id="Layer_1" data-name="Layer 1" xmlns="http://www.w3.org/2000/svg" viewBox="0 0 100 100"><defs><style>.cls-1{fill:#db9e36;}</style></defs><title>00 sun</title><path class="cls-1" d="M50.58,63.63A11.75,11.75,0,1,1,62.33,51.89,11.76,11.76,0,0,1,50.58,63.63Zm0-21.15a9.4,9.4,0,1,0,9.4,9.4A9.41,9.41,0,0,0,50.58,42.49Z"/><path class="cls-1" d="M50.58,35.67a1.18,1.18,0,0,1-1.17-1.17V29.6a1.17,1.17,0,0,1,2.35,0v4.9A1.18,1.18,0,0,1,50.58,35.67Z"/><path class="cls-1" d="M62.28,41.64a1.17,1.17,0,0,1-.83-2l4.21-4.21a1.17,1.17,0,0,1,1.66,1.66L63.11,41.3A1.17,1.17,0,0,1,62.28,41.64Z"/><path class="cls-1" d="M37,41.64a1.17,1.17,0,0,1-.83-.34L32,37.09a1.17,1.17,0,1,1,1.66-1.66l4.21,4.21a1.17,1.17,0,0,1-.83,2Z"/><path class="cls-1" d="M49.65,75.17A1.17,1.17,0,0,1,48.47,74V69.1a1.17,1.17,0,1,1,2.35,0V74A1.17,1.17,0,0,1,49.65,75.17Z"/><path class="cls-1" d="M33.74,68.51a1.18,1.18,0,0,1-.83-2l4.21-4.21A1.17,1.17,0,0,1,38.78,64l-4.21,4.21A1.17,1.17,0,0,1,33.74,68.51Z"/><path class="cls-1" d="M67.42,68.51a1.18,1.18,0,0,1-.83-.34L62.38,64A1.17,1.17,0,0,1,64,62.3l4.21,4.21a1.17,1.17,0,0,1-.83,2Z"/><path class="cls-1" d="M32.81,53.06H27.52a1.17,1.17,0,1,1,0-2.35h5.29a1.17,1.17,0,0,1,0,2.35Z"/><path class="cls-1" d="M72.75,53.06H66.48a1.17,1.17,0,1,1,0-2.35h6.27a1.17,1.17,0,1,1,0,2.35Z"/></svg>