<svg id="Layer_1" data-name="Layer 1" xmlns="http://www.w3.org/2000/svg" viewBox="0 0 100 100"><defs><style>.cls-1{fill:#db9e36;}</style></defs><title>sun-cloud</title><path class="cls-1" d="M38.81,28.39A1.18,1.18,0,0,0,40,27.22v-4.9a1.17,1.17,0,0,0-2.35,0v4.9A1.17,1.17,0,0,0,38.81,28.39Z"/><path class="cls-1" d="M50.5,34.37a1.17,1.17,0,0,0,.83-.34l4.21-4.21a1.17,1.17,0,0,0-1.66-1.66l-4.21,4.21a1.17,1.17,0,0,0,.83,2Z"/><path class="cls-1" d="M24.41,34a1.17,1.17,0,0,0,1.66-1.66l-4.21-4.21a1.17,1.17,0,0,0-1.66,1.66Z"/><path class="cls-1" d="M22.21,44.61A1.17,1.17,0,0,0,21,43.44H15.75a1.17,1.17,0,1,0,0,2.35H21A1.17,1.17,0,0,0,22.21,44.61Z"/><path class="cls-1" d="M63.76,39.54a18.47,18.47,0,0,0-9.44,2.59,13.45,13.45,0,0,0-4.72-2.2,11.75,11.75,0,0,0-22.25,7.18,11.27,11.27,0,0,0,.37,1.27,13.44,13.44,0,1,0,8,25.36,13.44,13.44,0,0,0,24,2.43,18.55,18.55,0,1,0,4.12-36.63ZM36.81,35.42a9.41,9.41,0,0,1,9.93,4.14h-.36a13.36,13.36,0,0,0-12.76,9.22,13.4,13.4,0,0,0-3.45-.54,9.15,9.15,0,0,1-.52-1.6A9.41,9.41,0,0,1,36.81,35.42ZM63.76,74.29a16.23,16.23,0,0,1-4.37-.61,1.18,1.18,0,0,0-1.35.57,11.09,11.09,0,0,1-20.53-2.53,1.17,1.17,0,0,0-.71-.8,1.18,1.18,0,0,0-1.06.1A11.1,11.1,0,1,1,34,51.37a1.18,1.18,0,0,0,1.59-.83,11.1,11.1,0,0,1,14.83-7.89,11.16,11.16,0,0,1,3.1,1.81,1.17,1.17,0,0,0,1.4.08,16.2,16.2,0,1,1,8.87,29.75Z"/></svg>